<svg width="191" height="28" version="1.1" xmlns="http://www.w3.org/2000/svg">
<path
   style="fill:none;stroke:#000;stroke-width:1.5;stroke-linecap:butt;"
   d="M 0.89246062,26.9 0.78840315,0.96421943 10.455118,18.853 20.4,1.7537415 v 17.0210885" />
<path
   style="fill:none;stroke:#000;stroke-width:1.5;stroke-linecap:butt;"
   d="M 24.176,19.085744 33.68,1.7775181 42.941048,18.738885" />
<path
   style="fill:none;stroke:#000;stroke-width:1.5;stroke-linecap:butt;"
   d="m 27,14.854 h 13.36" />
<path
   style="fill:none;stroke:#000;stroke-width:1.5;stroke-linecap:butt;"
   d="m 46.513688,26.855368 0,-25.2165932 13.804958,0 c 0,0 3.954183,-0.208115 3.954183,4.3704136 0,4.5785286 -3.9195,4.0929266 -3.9195,4.0929266 h -13.874328 z M 64.1,19.293858 57.96,10.06743" />
<path
   style="fill:none;stroke:#000;stroke-width:1.5;stroke-linecap:butt;"
   d="m 68.7473,19.155115 v -18.0366276" />
<path
   style="fill:none;stroke:#000;stroke-width:1.5;stroke-linecap:butt;"
   d="m 75.803335,14.854074 h 13.359103" />
<path style="fill:none;stroke:#000;stroke-width:1.5;stroke-linecap:butt;" d="M 73.013657,18.947 82.517572,1.604089 94.276066,23.490843 c 1.392933,2.592746 2.3,3.242866 4.376735,3.242866 2.077389,0 4.815,-0.4614 4.815,-3.832747 l 0,-21.1928156 12.10535,0 c 0,0 3.4,-0.3026312 3.4,4.2316704 0,4.5695492 -3.95418,4.1623 -3.95418,4.1623 l -11.23821,0" />
<path
   style="fill:none;stroke:#000;stroke-width:1.5;stroke-linecap:butt;"
   d="m 124.0365,19.051058 v -18.0366285" />
<path
   style="fill:none;stroke:#000;stroke-width:1.5;stroke-linecap:butt;"
   d="m 129.23938,26.681939 0,-25.2512791 16.51045,17.27354 v -17.1347969" />
<path
   style="fill:none;stroke:#000;stroke-width:1.5;stroke-linecap:butt;"
   d="m 158.72232,26.681939 v -25.1819075" />
<path
   style="fill:none;stroke:#000;stroke-width:1.5;stroke-linecap:butt;"
   d="m 149.7593,1.7075058 h 17.512" />
<path
   style="fill:none;stroke:#000;stroke-width:1.5;stroke-linecap:butt;"
   d="m 190.17911,9.92391 a 11.355806,9.3446274 0 1 1 -22.71161,0 11.355806,9.3446274 0 1 1 22.71161,0 z" />
</svg>